<svg width="30" height="30" viewBox="0 0 30 30" fill="none" xmlns="http://www.w3.org/2000/svg">
<path d="M27 0H3C1.34315 0 0 1.34315 0 3V27C0 28.6569 1.34315 30 3 30H27C28.6569 30 30 28.6569 30 27V3C30 1.34315 28.6569 0 27 0Z" fill="#0042DA"/>
<path d="M24.375 13.4424V11.7373C24.375 11.3231 24.0392 10.9873 23.625 10.9873H10.7019C10.2876 10.9873 9.95186 11.3231 9.95186 11.7373V13.4424C9.95186 13.8567 10.2876 14.1924 10.7019 14.1924H23.625C24.0392 14.1924 24.375 13.8567 24.375 13.4424Z" fill="#FF8E20"/>
<path fill-rule="evenodd" clip-rule="evenodd" d="M7.22756 14.1924C8.11264 14.1924 8.83013 13.4749 8.83013 12.5899C8.83013 11.7048 8.11264 10.9873 7.22756 10.9873C6.34249 10.9873 5.625 11.7048 5.625 12.5899C5.625 13.4749 6.34249 14.1924 7.22756 14.1924Z" fill="#FF8E20"/>
<path d="M5.625 16.5449V18.25C5.625 18.6642 5.96079 19 6.375 19H19.2981C19.7124 19 20.0481 18.6642 20.0481 18.25V16.5449C20.0481 16.1306 19.7124 15.7949 19.2981 15.7949H6.375C5.96079 15.7949 5.625 16.1306 5.625 16.5449Z" fill="white"/>
<path fill-rule="evenodd" clip-rule="evenodd" d="M22.7725 15.7949C21.8874 15.7949 21.1699 16.5124 21.1699 17.3975C21.1699 18.2826 21.8874 19.0001 22.7725 19.0001C23.6576 19.0001 24.375 18.2826 24.375 17.3975C24.375 16.5124 23.6576 15.7949 22.7725 15.7949Z" fill="white"/>
</svg>
